:SAMPLES-PER-SECOND 30
:FULLY-SPECIFIED
:DEGREES
170
root  -1.83619777 35.82000132 1.28022667 -0.3320007324 9.541000366 6.410995483
lowerback  15.08520031 -4.792449951 -10.29049969
upperback  5.907479763 -7.71239996 -0.2227649987
thorax  -0.7324669957 -4.017660141 6.612659931
lowerneck  2.433180094 -4.967649937 -13.05239964
upperneck  5.197299957 -7.402659893 13.45919991
head  2.111710072 -3.760519981 6.102200031
lclavicle  0 -9.442270133e-015 7.951389973e-016
lhumerus  25.43950081 -26.93959999 78.85600281
lradius  1.746313505e-031 -3.069076926e-031 119.6399994
lwrist  -7.062250077e-031 8.827812596e-032 18.38129997
lhand  -1.496451383e-031 -27.76390076 20.11240005
lfingers  90 7.125020027 -90
lthumb  89.89689403 5.08795885 91.16245106
rclavicle  0 -9.442270133e-015 7.951389973e-016
rhumerus  -6.578839779 -0.2645699978 -65.21489716
rradius  -2.182660188e-031 2.775759093e-031 128.1790009
rwrist  1.412450015e-030 -1.765562519e-031 -12.4666996
rhand  -7.920061211e-032 -33.2840004 9.303460121
rfingers  -90 -7.125020027 -90
rthumb  -92.93752616 -24.25625642 -97.11982154
rfemur  -42.01509857 22.10090065 -9.383350372
rtibia  -0 0 59.72090149
rfoot  -0 -16.8946991 -12.96280003
rtoes  5.373923086 19.29304026 -105.8922705
lfemur  0.8387389779 -7.990499973 -11.2215004
ltibia  -0 0 49.87799835
lfoot  -0 -28.79109955 12.69699955
ltoes  -4.250644065 -19.5611806 -102.515957
171
root  -1.653824453 35.89800136 0.986064419 -0.4859924316 8.197006226 6.083999634
lowerback  15.16539955 -4.584330082 -9.779490471
upperback  5.984980106 -7.372700214 -0.1241059974
thorax  -0.8138380051 -3.841360092 6.40734005
lowerneck  2.570250034 -4.810259819 -12.82670021
upperneck  5.38711977 -7.211200237 13.35039997
head  2.105829954 -3.666460037 6.041100025
lclavicle  0 -9.442270133e-015 7.951389973e-016
lhumerus  25.03100014 -27.21459961 79.37830353
lradius  1.726726911e-031 -3.080139317e-031 119.2750015
lwrist  -7.062250077e-031 -8.827812596e-032 18.38680077
lhand  -1.496451383e-031 -27.76390076 20.11240005
lfingers  90 7.125020027 -90
lthumb  89.89689403 5.08795885 91.16245106
rclavicle  0 -9.442270133e-015 7.951389973e-016
rhumerus  -4.859389782 -0.3650259972 -65.54550171
rradius  -2.191900978e-031 2.768467833e-031 128.3699951
rwrist  7.062250077e-031 1.765562519e-031 -12.95880032
rhand  -7.920061211e-032 -33.2840004 9.303460121
rfingers  -90 -7.125020027 -90
rthumb  -92.93752616 -24.25625642 -97.11982154
rfemur  -42.42029953 23.45929909 -9.821949959
rtibia  -0 0 58.25709915
rfoot  -0 -16.02149963 -12.87119961
rtoes  5.373923086 19.29304026 -105.8922705
lfemur  0.2248270065 -5.78278017 -11.04800034
ltibia  -0 0 50.9416008
lfoot  -0 -28.55999947 12.94149971
ltoes  -4.250644065 -19.5611806 -102.515957
172
root  -1.4501444 36.0511119 0.6696577617 -0.6690063477 6.684005737 5.809005737
lowerback  15.39920044 -4.370319843 -9.260149956
upperback  6.086540222 -7.038559914 -0.07178170234
thorax  -0.9525719881 -3.664410114 6.160719872
lowerneck  2.579530001 -4.628119946 -12.59249973
upperneck  5.67565012 -6.978350163 13.20460033
head  2.143680096 -3.54727006 5.963880062
lclavicle  0 -9.442270133e-015 7.951389973e-016
lhumerus  24.49869919 -27.37680054 79.80860138
lradius  1.711060943e-031 -3.088869451e-031 118.9840012
lwrist  0 -8.827812596e-032 18.21800041
lhand  -1.496451383e-031 -27.76390076 20.11240005
lfingers  90 7.125020027 -90
lthumb  89.89689403 5.08795885 91.16245106
rclavicle  0 -9.442270133e-015 7.951389973e-016
rhumerus  -3.130170107 -0.2505330145 -66.11710358
rradius  -2.195426382e-031 2.765672981e-031 128.4429932
rwrist  7.062250077e-031 1.765562519e-031 -13.14840031
rhand  -7.920061211e-032 -33.2840004 9.303460121
rfingers  -90 -7.125020027 -90
rthumb  -92.93752616 -24.25625642 -97.11982154
rfemur  -42.67100143 24.5802002 -10.1491003
rtibia  -0 0 56.36980057
rfoot  -0 -14.53660011 -13.00039959
rtoes  5.373923086 19.29304026 -105.8922705
lfemur  -0.3625859916 -3.656179905 -10.93389988
ltibia  -0 0 51.89550018
lfoot  -0 -27.85740089 12.82830048
ltoes  -4.250644065 -19.5611806 -102.515957
173
root  -1.234682245 36.25822293 0.3360844503 -0.8200073242 4.934005737 5.388000488
lowerback  15.76329994 -4.155340195 -8.632630348
upperback  6.109620094 -6.700839996 0.02807890065
thorax  -1.247149944 -3.474649906 5.918499947
lowerneck  2.697920084 -4.391980171 -12.375
upperneck  5.974309921 -6.677730083 12.93959999
head  2.155610085 -3.400069952 5.856969833
lclavicle  0 -9.442270133e-015 7.951389973e-016
lhumerus  23.64819908 -27.41410065 80.2322998
lradius  1.70453379e-031 -3.092476127e-031 118.862999
lwrist  -1.412450015e-030 -1.765562519e-031 17.82060051
lhand  -1.496451383e-031 -27.76390076 20.11240005
lfingers  90 7.125020027 -90
lthumb  89.89689403 5.08795885 91.16245106
rclavicle  0 -9.442270133e-015 7.951389973e-016
rhumerus  -1.549250007 0.1122749969 -66.84929657
rradius  -2.201792385e-031 2.760607601e-031 128.5749969
rwrist  7.062250077e-031 -1.765562519e-031 -13.46469975
rhand  -7.920061211e-032 -33.2840004 9.303460121
rfingers  -90 -7.125020027 -90
rthumb  -92.93752616 -24.25625642 -97.11982154
rfemur  -42.98830032 25.70229912 -10.43150043
rtibia  -0 0 54.06079865
rfoot  -0 -13.02569962 -12.69989967
rtoes  5.373923086 19.29304026 -105.8922705
lfemur  -0.8903579712 -1.585399985 -10.61240005
ltibia  -0 0 52.72109985
lfoot  -0 -26.9253006 12.06669998
ltoes  -4.250644065 -19.5611806 -102.515957
174
root  -1.008684429 36.4977769 -0.01173308853 -0.908996582 3.052001953 5.341003418
lowerback  16.13509941 -3.952939987 -8.422780037
upperback  6.174220085 -6.437220097 0.08639889956
thorax  -1.436190009 -3.335540056 5.863959789
lowerneck  2.787810087 -4.076200008 -12.4137001
upperneck  6.12830019 -6.259960175 12.7105999
head  2.12590003 -3.199379921 5.807209969
lclavicle  0 -9.442270133e-015 7.951389973e-016
lhumerus  22.78470039 -27.11879921 80.66040039
lradius  1.708041127e-031 -3.090540332e-031 118.9280014
lwrist  -1.412450015e-030 -1.765562519e-031 17.65209961
lhand  -1.496451383e-031 -27.76390076 20.11240005
lfingers  90 7.125020027 -90
lthumb  89.89689403 5.08795885 91.16245106
rclavicle  0 -9.442270133e-015 7.951389973e-016
rhumerus  0.1285900027 0.8113020062 -67.60620117
rradius  -2.211030955e-031 2.753213786e-031 128.7669983
rwrist  1.412450015e-030 -1.765562519e-031 -13.91709995
rhand  -7.920061211e-032 -33.2840004 9.303460121
rfingers  -90 -7.125020027 -90
rthumb  -92.93752616 -24.25625642 -97.11982154
rfemur  -43.21310043 26.56640053 -11.17179966
rtibia  -0 0 51.3810997
rfoot  -0 -11.49349976 -11.87129974
rtoes  5.373923086 19.29304026 -105.8922705
lfemur  -1.32573998 0.3029530048 -10.69019985
ltibia  -0 0 53.38119888
lfoot  -0 -25.75769997 10.79629993
ltoes  -4.250644065 -19.5611806 -102.515957
